<svg width="27" height="26" viewBox="0 0 27 26" fill="none" xmlns="http://www.w3.org/2000/svg">
<path d="M26 13.0042C26 20.1839 20.1798 26.0043 13 26.0042C5.8203 26.0043 0 20.1839 0 13.0042C0 5.82445 5.8203 0.00415039 13 0.00415039C20.1797 0.00415039 26 5.82445 26 13.0042Z" fill="white"/>
<path fill-rule="evenodd" clip-rule="evenodd" d="M0.000216995 12.9815C-0.0408311 20.1706 5.74694 25.9629 12.9714 26.0039C20.1138 26.045 25.9426 20.2527 26.0247 13.0637C26.0657 5.87468 20.278 0.0412973 13.0535 0.000217165C5.87009 -0.040863 0.000216995 5.75144 0.000216995 12.9815ZM12.9714 1.23262C19.498 1.23262 24.7522 6.49088 24.7522 13.0226C24.7522 19.5133 19.498 24.7715 13.0124 24.7715C6.48581 24.7715 1.23166 19.5133 1.23166 12.9815C1.23166 6.49088 6.48581 1.23262 12.9714 1.23262Z" fill="#031E6B"/>
<path fill-rule="evenodd" clip-rule="evenodd" d="M13.0808 23.8027C18.8928 23.8471 23.6205 19.0065 23.7072 13.0113C23.7072 7.06044 19.0229 2.21983 13.1676 2.17542C7.39896 2.13101 2.67129 6.8828 2.58454 12.8781C2.4978 18.8289 7.18209 23.7139 13.0808 23.8027ZM13.0999 20.6023C17.1918 20.6335 20.5202 17.2256 20.5813 13.0047C20.5813 8.8151 17.2834 5.40713 13.161 5.37586C9.09966 5.3446 5.77121 8.69003 5.71014 12.9109C5.64907 17.1005 8.94698 20.5398 13.0999 20.6023Z" fill="#DB9A1E"/>
<path fill-rule="evenodd" clip-rule="evenodd" d="M13.1067 19.37C16.5366 19.3962 19.3265 16.5396 19.3777 13.0016C19.3777 9.48983 16.6133 6.63323 13.1579 6.60702C9.75365 6.58082 6.9637 9.385 6.9125 12.923C6.86131 16.4348 9.62567 19.3176 13.1067 19.37ZM13.1135 18.186C15.9071 18.2073 18.1796 15.8806 18.2213 12.9989C18.2213 10.1386 15.9697 7.81186 13.1552 7.79051C10.3824 7.76917 8.11003 10.0532 8.06833 12.9349C8.02664 15.7952 10.2782 18.1433 13.1135 18.186Z" fill="#0F2B71"/>
<path fill-rule="evenodd" clip-rule="evenodd" d="M9.24893 9.34578L9.25549 9.34585C9.24428 9.36016 9.23942 9.36587 9.23881 9.36545C9.23814 9.36499 9.2424 9.3574 9.24893 9.34578ZM9.31266 9.34609L9.31242 9.27192C9.28522 9.30741 9.267 9.33116 9.25549 9.34585L9.31266 9.34609ZM9.31266 9.34609C9.31329 9.47942 9.31498 9.61671 9.31667 9.75401L9.31667 9.75401C9.31868 9.91692 9.32069 10.0798 9.32092 10.2361C9.30923 10.2961 9.34224 10.3157 9.39404 10.3018C9.43744 10.3013 9.48184 10.3006 9.52708 10.2998L9.52719 10.2998H9.52719C9.71278 10.2966 9.91272 10.2932 10.1173 10.307C10.3717 10.3241 10.5652 10.5281 10.5702 10.7541C10.6289 12.2165 10.6546 13.6593 10.6803 15.1021C10.7041 15.2947 10.5771 15.4425 10.3557 15.4449C10.1673 15.467 9.94586 15.4695 9.75033 15.465C9.67262 15.4859 9.64672 15.4928 9.64213 15.5793C9.62128 15.8123 9.58162 16.0787 9.54197 16.3452C9.53028 16.4052 9.52329 16.4568 9.5163 16.5084C9.50931 16.56 9.50232 16.6117 9.49063 16.6716C10.1549 16.6642 10.7933 16.6637 11.4317 16.6632C11.44 16.6943 11.437 16.7186 11.4346 16.7388C11.4328 16.753 11.4313 16.7652 11.4342 16.7762C11.4184 17.2353 11.4356 17.7139 11.4528 18.1925C11.4411 18.2525 11.4482 18.279 11.5331 18.2847C11.8063 18.2683 12.0795 18.252 12.3599 18.2621C12.4346 18.2672 12.438 18.2472 12.4457 18.2013C12.4468 18.1951 12.4479 18.1885 12.4493 18.1813C12.4432 18.0551 12.4436 17.927 12.444 17.799V17.799V17.799C12.4444 17.671 12.4448 17.543 12.4387 17.4167C12.4326 17.2904 12.433 17.1624 12.4334 17.0344V17.0343V17.0343C12.4338 16.9063 12.4342 16.7783 12.4282 16.652C12.6755 16.6426 12.8969 16.6401 13.1184 16.6376C13.1608 16.6467 13.1629 16.6667 13.1661 16.6969C13.1673 16.7087 13.1687 16.722 13.1727 16.7368C13.1569 17.1958 13.1741 17.6744 13.1913 18.1531C13.1796 18.213 13.1867 18.2396 13.2715 18.2453C13.3952 18.2406 13.5271 18.2407 13.659 18.2409C13.7909 18.2411 13.9229 18.2413 14.0465 18.2366C14.1841 18.2541 14.1835 18.2306 14.181 18.1295L14.1806 18.1154C14.1756 17.8893 14.1688 17.6566 14.1619 17.424C14.1551 17.1913 14.1483 16.9586 14.1432 16.7325C14.1478 16.646 14.1925 16.6056 14.2773 16.6113C14.8167 16.5521 15.349 16.4663 15.8716 16.241C16.2718 16.0769 16.5847 15.7941 16.7773 15.373C16.9322 15.0188 16.9765 14.6658 16.9806 14.2668C16.9801 13.9542 16.9207 13.629 16.7908 13.3512C16.5877 13.0076 16.3023 12.7714 15.9275 12.616C15.865 12.5901 15.8043 12.5708 15.7437 12.5516L15.7436 12.5516L15.7436 12.5516C15.683 12.5323 15.6223 12.513 15.5598 12.4871C15.5902 12.479 15.6092 12.4641 15.6249 12.4518C15.6361 12.4431 15.6456 12.4357 15.6563 12.4328C15.8422 12.2977 16.021 12.1361 16.1338 11.9354C16.2841 11.6677 16.3167 11.3747 16.3162 11.0621C16.3061 10.61 16.1665 10.1926 15.8268 9.85728C15.5744 9.64065 15.2845 9.49095 14.9828 9.40122L14.0214 9.23244C13.9366 9.22674 13.9036 9.20716 13.9082 9.12066C13.9245 8.97417 13.9148 8.83462 13.9052 8.69507C13.8976 8.356 13.8901 8.01692 13.8754 7.65132C13.8624 7.65479 13.8542 7.6499 13.8459 7.645V7.645V7.645C13.8377 7.64011 13.8294 7.63521 13.8165 7.63868C13.6845 7.6373 13.5587 7.63954 13.4358 7.64174C13.2735 7.64464 13.1162 7.64745 12.9566 7.64167C12.8977 7.62903 12.8789 7.66249 12.8932 7.71553L12.9007 8.05461C12.8895 8.42715 12.8971 8.76623 12.9117 9.13182C12.9055 9.14298 12.9 9.15708 12.8945 9.17118C12.8836 9.19938 12.8726 9.22758 12.8553 9.23221C12.7446 9.23345 12.6274 9.23643 12.5102 9.2394C12.3931 9.24238 12.2759 9.24536 12.1651 9.2466C12.1768 9.18661 12.1697 9.16009 12.1626 9.13357C12.1576 8.90752 12.1508 8.67484 12.1439 8.44216C12.1371 8.20947 12.1303 7.97679 12.1252 7.75074C12.1369 7.69076 12.1298 7.66424 12.045 7.65854C11.7718 7.6749 11.5244 7.68432 11.2441 7.67416C11.1593 7.66846 11.1405 7.70193 11.1359 7.78843C11.1445 8.02774 11.1513 8.26042 11.1581 8.49311C11.165 8.72579 11.1718 8.95847 11.1804 9.19778C11.1758 9.28429 11.157 9.31775 11.0722 9.31205C10.9191 9.31044 10.7677 9.31546 10.6164 9.32048C10.465 9.3255 10.3137 9.33053 10.1606 9.32892C10.0074 9.32731 9.85609 9.33233 9.70475 9.33735L9.70474 9.33735C9.57442 9.34167 9.44411 9.346 9.31266 9.34609ZM12.3252 15.5426C12.3239 15.3595 12.3192 15.1826 12.3145 15.0087C12.3083 14.7783 12.3022 14.5532 12.3046 14.3258C12.295 14.1863 12.2936 14.0516 12.2922 13.917C12.2908 13.7823 12.2894 13.6477 12.2798 13.5081L12.2808 13.4865C12.2839 13.4172 12.2848 13.3956 12.3621 13.4008L12.4103 13.3979C12.9422 13.3659 13.4967 13.3325 14.0183 13.4687C14.261 13.5458 14.5038 13.6228 14.6901 13.8003C15.0888 14.1483 15.0592 14.8669 14.6097 15.1579C14.3532 15.3403 14.0683 15.4166 13.7503 15.4734C13.373 15.5505 12.9754 15.5522 12.5944 15.5538H12.5944C12.5237 15.5541 12.4535 15.5544 12.3841 15.5552C12.3841 15.5552 12.3511 15.5356 12.3252 15.5426ZM12.9248 12.3913C13.2046 12.3627 13.4756 12.3349 13.7762 12.2544C13.828 12.2405 13.9504 12.1793 14.0469 12.125C14.5106 11.8871 14.6133 11.2342 14.2335 10.8527C14.04 10.6487 13.7642 10.5521 13.5027 10.5085C13.1779 10.4588 12.8668 10.4602 12.5414 10.4618C12.4608 10.4621 12.3793 10.4625 12.2965 10.4621C12.2117 10.4564 12.1929 10.4899 12.1883 10.5764C12.208 11.168 12.2207 11.7332 12.2145 12.3318C12.2028 12.3917 12.2358 12.4113 12.2947 12.424C12.3501 12.4233 12.3989 12.4245 12.4478 12.4256C12.4967 12.4267 12.5456 12.4278 12.6009 12.4272C12.7116 12.4132 12.8188 12.4022 12.9248 12.3913Z" fill="#122C73"/>
</svg>
