<?xml version="1.0" encoding="UTF-8" standalone="no"?>
<!DOCTYPE svg PUBLIC "-//W3C//DTD SVG 1.1//EN" "http://www.w3.org/Graphics/SVG/1.1/DTD/svg11.dtd">
<svg width="100%" height="100%" viewBox="0 0 26 26" version="1.1" xmlns="http://www.w3.org/2000/svg" xmlns:xlink="http://www.w3.org/1999/xlink" xml:space="preserve" xmlns:serif="http://www.serif.com/" style="fill-rule:evenodd;clip-rule:evenodd;stroke-linejoin:round;stroke-miterlimit:2;">
    <g id="Ton">
        <g transform="matrix(1.06269,0,0,1.06269,-2.01178,-1.62989)">
            <circle cx="14.126" cy="13.767" r="12.233" style="fill:rgb(0,152,234);fill-opacity:0.2;"/>
        </g>
        <g transform="matrix(0.511359,0,0,0.511359,-1.31804,-1.41474)">
            <path d="M37.563,15.628L18.439,15.628C14.923,15.628 12.694,19.42 14.463,22.486L26.264,42.941C27.035,44.277 28.964,44.277 29.735,42.941L41.538,22.486C43.305,19.425 41.076,15.628 37.563,15.628ZM26.255,36.807L23.685,31.833L17.483,20.741C17.074,20.032 17.58,19.122 18.436,19.122L26.252,19.122L26.252,36.809L26.255,36.807ZM38.511,20.739L32.312,31.835L29.742,36.807L29.742,19.119L37.558,19.119C38.415,19.119 38.92,20.029 38.511,20.739Z" style="fill:white;fill-rule:nonzero;"/>
        </g>
    </g>
</svg>
