<?xml version="1.0" encoding="UTF-8" standalone="no"?>
<!DOCTYPE svg PUBLIC "-//W3C//DTD SVG 1.1//EN" "http://www.w3.org/Graphics/SVG/1.1/DTD/svg11.dtd">
<svg width="100%" height="100%" viewBox="0 0 26 26" version="1.1" xmlns="http://www.w3.org/2000/svg" xmlns:xlink="http://www.w3.org/1999/xlink" xml:space="preserve" xmlns:serif="http://www.serif.com/" style="fill-rule:evenodd;clip-rule:evenodd;stroke-linejoin:round;stroke-miterlimit:2;">
    <g transform="matrix(1.06269,0,0,1.06269,-2.01178,-1.62989)">
        <circle cx="14.126" cy="13.767" r="12.233" style="fill:rgb(255,0,16);fill-opacity:0.2;"/>
    </g>
    <g transform="matrix(0.0141076,0,0,0.0141076,13,13.6939)">
        <g transform="matrix(1,0,0,1,-800,-800)">
            <g transform="matrix(66.6667,0,0,66.6667,0,0)">
                <path d="M4.611,4.686C4.725,4.544 4.908,4.476 5.088,4.508L16.575,6.557C16.672,6.574 16.761,6.619 16.832,6.687L19.345,9.077C19.538,9.261 19.553,9.564 19.378,9.766L11.122,19.327C11.008,19.458 10.835,19.521 10.663,19.494C10.492,19.466 10.347,19.351 10.281,19.19L4.537,5.19C4.468,5.021 4.496,4.828 4.611,4.686ZM6.196,6.599L10.485,17.053L11.289,10.679L6.196,6.599ZM12.269,10.905L11.447,17.421L17.749,10.123L12.269,10.905ZM17.908,9.09L13.73,9.686L16.445,7.699L17.908,9.09ZM15.248,7.336L6.845,5.837L11.834,9.834L15.248,7.336Z" style="fill:rgb(255,0,16);"/>
            </g>
        </g>
    </g>
</svg>
