<?xml version="1.0" encoding="UTF-8" standalone="no"?>
<!DOCTYPE svg PUBLIC "-//W3C//DTD SVG 1.1//EN" "http://www.w3.org/Graphics/SVG/1.1/DTD/svg11.dtd">
<svg width="100%" height="100%" viewBox="0 0 854 895" version="1.1" xmlns="http://www.w3.org/2000/svg" xmlns:xlink="http://www.w3.org/1999/xlink" xml:space="preserve" xmlns:serif="http://www.serif.com/" style="fill-rule:evenodd;clip-rule:evenodd;stroke-linejoin:round;stroke-miterlimit:2;">
    <path d="M809.98,267.77C785.55,292.57 761.15,317.57 736.34,341.79C702.65,374.67 659.8,432.24 607.53,391.94C569.42,362.55 506.04,274.03 464.91,262.54C434.44,254.03 407.38,260.8 383.8,280.93C360.26,301.02 282.27,376.53 268.08,399.64C246.62,434.6 253.37,472.07 279.12,502.05C303.94,530.95 355.71,583.82 384.73,607.62C474.66,681.36 545.95,543.92 607.59,495.79C630.94,477.55 666.48,479.76 688.99,498.41L838.5,647.88L837.61,652.39C767.76,721.2 708.37,792.9 616.81,834.3C302.01,976.61 -38.46,708.66 18.19,369.86C64.97,90.1 373.72,-66.11 629.33,58.74C714.09,100.14 771.2,171.08 837.59,235.29L838.48,239.8C828.75,248.91 819.31,258.28 809.97,267.77L809.98,267.77Z" style="fill-rule:nonzero;"/>
</svg>
